HIERARCHY
ROOT Reference
{
  OFFSET 0 0 0
  CHANNELS 6 Xposition Yposition Zposition Zrotation Xrotation Yrotation
  JOINT Hips
  {
    OFFSET 251.394 724.17 483.536
    CHANNELS 3 Zrotation Xrotation Yrotation
    JOINT RightUpLeg
    {
      OFFSET -0.450515 -23.4426 -1.37224
      CHANNELS 3 Zrotation Xrotation Yrotation
      JOINT RightLeg
      {
        OFFSET 112.821 0.0872427 -0.321027
        CHANNELS 3 Zrotation Xrotation Yrotation
        JOINT RightFoot
        {
          OFFSET 105.718 0.000193788 0.0213165
          CHANNELS 3 Zrotation Xrotation Yrotation
          JOINT RightToeBase
          {
            OFFSET 37.638 -0.000116272 0.00224792
            CHANNELS 3 Zrotation Xrotation Yrotation
            JOINT RightToeEnd
            {
              OFFSET 21.2112 0.114605 -0.000138184
              CHANNELS 3 Zrotation Xrotation Yrotation
              End Site
              {
                OFFSET 0 0 0
              }
            }
          }
        }
      }
    }
    JOINT LeftUpLeg
    {
      OFFSET -0.449508 23.4315 -1.37054
      CHANNELS 3 Zrotation Xrotation Yrotation
      JOINT LeftLeg
      {
        OFFSET 112.821 -0.0485242 -0.372458
        CHANNELS 3 Zrotation Xrotation Yrotation
        JOINT LeftFoot
        {
          OFFSET 105.716 0.00496094 -0.0229443
          CHANNELS 3 Zrotation Xrotation Yrotation
          JOINT LeftToeBase
          {
            OFFSET 37.639 0 0.00158905
            CHANNELS 3 Zrotation Xrotation Yrotation
            JOINT LeftToeEnd
            {
              OFFSET 21.2113 -0.125031 -0.00017438
              CHANNELS 3 Zrotation Xrotation Yrotation
              End Site
              {
                OFFSET 0 0 0
              }
            }
          }
        }
      }
    }
    JOINT Spine
    {
      OFFSET -5.01225 0.000463591 -9.60395
      CHANNELS 3 Zrotation Xrotation Yrotation
      JOINT Spine1
      {
        OFFSET 26.0222 -0.000271301 -0.000155029
        CHANNELS 3 Zrotation Xrotation Yrotation
        JOINT Spine2
        {
          OFFSET 27.173 -0.000155029 -0.000310058
          CHANNELS 3 Zrotation Xrotation Yrotation
          JOINT Spine3
          {
            OFFSET 36.3953 -0.000232544 7.75146e-005
            CHANNELS 3 Zrotation Xrotation Yrotation
            JOINT Neck
            {
              OFFSET 36.4331 0 -3.00261
              CHANNELS 3 Zrotation Xrotation Yrotation
              JOINT Head
              {
                OFFSET 23.0407 -0.000232544 -0.000310058
                CHANNELS 3 Zrotation Xrotation Yrotation
                End Site
                {
                  OFFSET 0 0 0
                }
              }
            }
            JOINT LeftShoulder
            {
              OFFSET 20.1317 6.74168 -12.6061
              CHANNELS 3 Zrotation Xrotation Yrotation
              JOINT LeftArm
              {
                OFFSET 34.2172 -5.81359e-005 7.75146e-005
                CHANNELS 3 Zrotation Xrotation Yrotation
                JOINT LeftForeArm
                {
                  OFFSET 65.4129 -0.0821605 0.0585235
                  CHANNELS 3 Zrotation Xrotation Yrotation
                  JOINT LeftHand
                  {
                    OFFSET 67.3883 0.0359667 0.0112396
                    CHANNELS 3 Zrotation Xrotation Yrotation
                    JOINT LeftHandThumb1
                    {
                      OFFSET 8.78386 2.85353 -6.05362
                      CHANNELS 3 Zrotation Xrotation Yrotation
                      JOINT LeftHandThumb2
                      {
                        OFFSET 8.25498 -0.000116272 -0.000174407
                        CHANNELS 3 Zrotation Xrotation Yrotation
                        JOINT LeftHandThumb3
                        {
                          OFFSET 7.24822 0.000310058 5.81358e-005
                          CHANNELS 3 Zrotation Xrotation Yrotation
                          JOINT LeftHandThumb4
                          {
                            OFFSET 7.0004 -3.87568e-005 -0.000310057
                            CHANNELS 3 Zrotation Xrotation Yrotation
                            End Site
                            {
                              OFFSET 0 0 0
                            }
                          }
                        }
                      }
                    }
                    JOINT LeftHandIndex1
                    {
                      OFFSET 24.0991 -1.01537 -5.40558
                      CHANNELS 3 Zrotation Xrotation Yrotation
                      JOINT LeftHandIndex2
                      {
                        OFFSET 7.26759 -0.000290679 -0.000465086
                        CHANNELS 3 Zrotation Xrotation Yrotation
                        JOINT LeftHandIndex3
                        {
                          OFFSET 7.13628 -1.93787e-005 0.000232543
                          CHANNELS 3 Zrotation Xrotation Yrotation
                          JOINT LeftHandIndex4
                          {
                            OFFSET 5.46699 9.68932e-005 -0.000387571
                            CHANNELS 3 Zrotation Xrotation Yrotation
                            End Site
                            {
                              OFFSET 0 0 0
                            }
                          }
                        }
                      }
                    }
                    JOINT LeftHandMiddle1
                    {
                      OFFSET 24.4604 -2.52837 0.918567
                      CHANNELS 3 Zrotation Xrotation Yrotation
                      JOINT LeftHandMiddle2
                      {
                        OFFSET 7.41627 -5.81359e-005 0.000116271
                        CHANNELS 3 Zrotation Xrotation Yrotation
                        JOINT LeftHandMiddle3
                        {
                          OFFSET 8.76829 3.87573e-005 -7.75142e-005
                          CHANNELS 3 Zrotation Xrotation Yrotation
                          JOINT LeftHandMiddle4
                          {
                            OFFSET 6.07588 -0.00013565 -5.81356e-005
                            CHANNELS 3 Zrotation Xrotation Yrotation
                            End Site
                            {
                              OFFSET 0 0 0
                            }
                          }
                        }
                      }
                    }
                    JOINT LeftHandRing1
                    {
                      OFFSET 22.465 -1.97467 6.3466
                      CHANNELS 3 Zrotation Xrotation Yrotation
                      JOINT LeftHandRing2
                      {
                        OFFSET 7.36666 -0.000232544 0.000387571
                        CHANNELS 3 Zrotation Xrotation Yrotation
                        JOINT LeftHandRing3
                        {
                          OFFSET 8.07624 -0.000465087 -0.000203475
                          CHANNELS 3 Zrotation Xrotation Yrotation
                          JOINT LeftHandRing4
                          {
                            OFFSET 6.04433 0.00013565 3.87571e-005
                            CHANNELS 3 Zrotation Xrotation Yrotation
                            End Site
                            {
                              OFFSET 0 0 0
                            }
                          }
                        }
                      }
                    }
                    JOINT LeftHandPinky1
                    {
                      OFFSET 19.5278 0.352933 10.4295
                      CHANNELS 3 Zrotation Xrotation Yrotation
                      JOINT LeftHandPinky2
                      {
                        OFFSET 6.16525 5.8136e-005 -0.000251921
                        CHANNELS 3 Zrotation Xrotation Yrotation
                        JOINT LeftHandPinky3
                        {
                          OFFSET 6.14448 -0.000329434 -0.00510625
                          CHANNELS 3 Zrotation Xrotation Yrotation
                          JOINT LeftHandPinky4
                          {
                            OFFSET 4.98555 0.000116272 0.000116271
                            CHANNELS 3 Zrotation Xrotation Yrotation
                            End Site
                            {
                              OFFSET 0 0 0
                            }
                          }
                        }
                      }
                    }
                  }
                }
              }
            }
            JOINT RightShoulder
            {
              OFFSET 20.1309 -6.74152 -12.6063
              CHANNELS 3 Zrotation Xrotation Yrotation
              JOINT RightArm
              {
                OFFSET 34.2171 7.75146e-005 7.75146e-005
                CHANNELS 3 Zrotation Xrotation Yrotation
                JOINT RightForeArm
                {
                  OFFSET 65.4492 0.242543 -0.176501
                  CHANNELS 3 Zrotation Xrotation Yrotation
                  JOINT RightHand
                  {
                    OFFSET 67.3888 -0.0867388 0.0597442
                    CHANNELS 3 Zrotation Xrotation Yrotation
                    JOINT RightHandThumb1
                    {
                      OFFSET 8.78307 -2.85357 -6.05302
                      CHANNELS 3 Zrotation Xrotation Yrotation
                      JOINT RightHandThumb2
                      {
                        OFFSET 8.25493 -7.75145e-005 0
                        CHANNELS 3 Zrotation Xrotation Yrotation
                        JOINT RightHandThumb3
                        {
                          OFFSET 7.24797 -0.000174408 0.000155029
                          CHANNELS 3 Zrotation Xrotation Yrotation
                          JOINT RightHandThumb4
                          {
                            OFFSET 7.00062 0 0
                            CHANNELS 3 Zrotation Xrotation Yrotation
                            End Site
                            {
                              OFFSET 0 0 0
                            }
                          }
                        }
                      }
                    }
                    JOINT RightHandIndex1
                    {
                      OFFSET 24.0991 1.01525 -5.40578
                      CHANNELS 3 Zrotation Xrotation Yrotation
                      JOINT RightHandIndex2
                      {
                        OFFSET 7.26773 7.75144e-005 0.000232543
                        CHANNELS 3 Zrotation Xrotation Yrotation
                        JOINT RightHandIndex3
                        {
                          OFFSET 7.13572 -0.000310058 3.87571e-005
                          CHANNELS 3 Zrotation Xrotation Yrotation
                          JOINT RightHandIndex4
                          {
                            OFFSET 5.46717 0 3.87572e-005
                            CHANNELS 3 Zrotation Xrotation Yrotation
                            End Site
                            {
                              OFFSET 0 0 0
                            }
                          }
                        }
                      }
                    }
                    JOINT RightHandMiddle1
                    {
                      OFFSET 24.4603 2.52899 0.918547
                      CHANNELS 3 Zrotation Xrotation Yrotation
                      JOINT RightHandMiddle2
                      {
                        OFFSET 7.41641 -0.000116272 -0.000116272
                        CHANNELS 3 Zrotation Xrotation Yrotation
                        JOINT RightHandMiddle3
                        {
                          OFFSET 8.76765 -3.87577e-005 0.000232543
                          CHANNELS 3 Zrotation Xrotation Yrotation
                          JOINT RightHandMiddle4
                          {
                            OFFSET 6.07609 -0.000193787 -0.000116271
                            CHANNELS 3 Zrotation Xrotation Yrotation
                            End Site
                            {
                              OFFSET 0 0 0
                            }
                          }
                        }
                      }
                    }
                    JOINT RightHandRing1
                    {
                      OFFSET 22.465 1.97571 6.34696
                      CHANNELS 3 Zrotation Xrotation Yrotation
                      JOINT RightHandRing2
                      {
                        OFFSET 7.36684 0.000193786 0.000155029
                        CHANNELS 3 Zrotation Xrotation Yrotation
                        JOINT RightHandRing3
                        {
                          OFFSET 8.07614 -0.000271301 0
                          CHANNELS 3 Zrotation Xrotation Yrotation
                          JOINT RightHandRing4
                          {
                            OFFSET 6.04468 0.000232543 0
                            CHANNELS 3 Zrotation Xrotation Yrotation
                            End Site
                            {
                              OFFSET 0 0 0
                            }
                          }
                        }
                      }
                    }
                    JOINT RightHandPinky1
                    {
                      OFFSET 19.5277 -0.352346 10.4296
                      CHANNELS 3 Zrotation Xrotation Yrotation
                      JOINT RightHandPinky2
                      {
                        OFFSET 6.16508 0 0.000232543
                        CHANNELS 3 Zrotation Xrotation Yrotation
                        JOINT RightHandPinky3
                        {
                          OFFSET 6.14396 -0.000155048 -0.0048834
                          CHANNELS 3 Zrotation Xrotation Yrotation
                          JOINT RightHandPinky4
                          {
                            OFFSET 4.98577 -7.75146e-005 -7.75143e-005
                            CHANNELS 3 Zrotation Xrotation Yrotation
                            End Site
                            {
                              OFFSET 0 0 0
                            }
                          }
                        }
                      }
                    }
                  }
                }
              }
            }
          }
        }
      }
    }
  }
}
MOTION
Frames:	4
Frame Time:	0.0333333
0 0 0 -90 -7.01671e-015 -180 -30.1915 -8.08032 -94.7476 -172.952 -34.269 -29.5767 0.629971 0.833047 -37.6524 -14.3706 -17.064 10.4058 -0.581104 -0.00931384 69.0355 1.57906e-005 3.16775e-005 -86.4974 172.465 -32.3025 -49.9332 1.00069 0.678551 -56.1084 -0.410459 -0.101224 46.3927 0.590945 -0.0635549 62.5471 3.78494e-006 -2.58976e-005 -86.4974 0.000226633 8.90276e-005 130.412 11.9407 -0.851759 -16.0326 19.1255 -0.191798 -14.6039 4.9642 -22.955 -2.95964 -15.1127 48.7351 32.2531 6.65339 22.0387 55.69 112.629 20.0524 -38.3705 44.6612 22.726 54.8673 -6.09541 27.47 65.168 -28.3599 -14.4481 30.0524 -166.837 -42.1761 140.588 0.000359107 1.44964e-005 4.13791 0.00262944 0.000203144 4.67094 0.000255275 -0.00148153 -0.000136387 96.0446 82.5924 -84.6832 -0.000231119 -0.000884137 29.4227 0.00148341 -0.000388829 27.9856 0.00134329 -0.00209354 -0.00692689 12.5538 86.6953 12.969 0.000259168 -0.0002625 45.6623 0.000944233 -0.00035794 14.7945 -0.000562654 -0.00029559 -0.163776 18.5937 85.4217 19.0713 0.000361347 -0.00105012 27.9746 0.00165676 0.000379613 26.4935 -0.000631519 -0.000695901 -0.1632 31.2674 81.8286 -4.69014 0.00141895 -0.000740491 36.3558 -0.0136336 -0.00661533 25.4993 -3.85209e-005 -7.3499e-005 -0.164301 -76.7606 -23.9049 -9.12693 -25.5434 -8.62553 88.7064 -20.9197 23.6236 111.187 1.67116 43.675 30.6042 142.213 51.8016 169.894 -0.000133991 -7.67532e-005 16.9256 9.39371e-005 0.000122693 23.1134 -1.52588e-005 -0.000183106 180 -95.0304 -68.1708 -102.331 -0.000239888 4.63833e-006 49.7582 0.000122817 -7.45728e-005 49.2964 -9.15529e-005 -4.57764e-005 -180 -105.984 -79.9218 -76.0652 -7.41409e-005 6.97348e-007 65.9844 -0.000204318 0.000267961 58.5702 -1.52588e-005 -1.52588e-005 180 -16.1788 -83.9647 34.4446 -1.26222e-005 0.000159405 55.5556 -0.000132365 -6.74177e-005 57.7158 1.52588e-005 -6.10353e-005 -180 13.4557 -78.0188 70.4021 -0.00022579 0.000358607 51.2478 -6.78458e-005 -6.98161e-005 49.3611 1.52588e-005 -1.52588e-005 -180 
0 0 0 -90 -7.01671e-015 -180 -30.6204 -8.46213 -95.0976 -174.67 -35.9111 -32.5247 0.601675 0.859997 -35.549 -14.5406 -16.0635 10.7203 -0.581038 -0.0120911 69.3129 1.53544e-005 2.39209e-005 -86.4974 172.205 -32.8289 -52.5124 0.966563 0.72916 -53.2264 -0.288367 -0.289737 45.8158 0.590556 -0.067104 62.206 3.8247e-006 -2.83197e-005 -86.4974 0.000242615 8.81712e-005 129.944 12.3944 -0.469743 -16.118 19.1193 0.0642598 -14.6023 4.9981 -22.7859 -2.80691 -14.5266 49.2439 31.4662 6.25816 22.0494 55.9394 112.964 19.9002 -39.0015 44.6504 22.8044 54.6739 -5.66945 28.5183 65.0717 -27.3822 -14.6356 30.8637 -166.568 -41.8015 140.725 0.000356474 1.20243e-005 4.09791 0.000225038 1.68855e-005 5.02674 0.000257838 -0.00128963 -0.000136601 95.6963 82.7084 -84.0993 -0.000232846 -0.000869485 29.4191 0.00148189 -0.000390182 27.985 0.00131291 -0.00206968 -0.0106664 12.3707 86.7367 13.2316 0.000259957 -0.000262987 45.4143 0.000940069 -0.000364262 14.7606 -0.000563937 -0.000298151 -0.165056 18.6679 85.4871 18.9422 0.000359383 -0.0010435 27.93 0.00165901 0.000357367 26.3057 -0.000632375 -0.000696753 -0.16448 31.7889 81.8438 -5.19541 0.00141525 -0.000752328 35.9256 -0.0108714 -0.00526231 25.1374 -3.76591e-005 -7.17977e-005 -0.165579 -77.5475 -24.0209 -8.61818 -25.8582 -9.58467 87.02 -19.3881 21.4376 110.674 1.69267 43.7246 31.347 142.213 51.8016 169.894 -0.000138804 0.000114833 16.9257 9.70822e-005 0.000120859 23.0674 -1.52588e-005 -0.000289918 180 -95.0299 -68.1708 -102.33 -0.000240018 -2.69822e-006 49.7581 0.000123192 -7.66716e-005 49.2515 -9.15529e-005 -6.10352e-005 -180 -105.983 -79.9218 -76.0643 -7.21131e-005 -7.70355e-006 65.9845 -0.000204592 0.000265772 58.5702 -1.52588e-005 -6.10353e-005 180 -16.1788 -83.9647 34.4446 -1.08253e-005 0.000136732 55.5556 -0.000132049 -8.83487e-005 57.7158 1.52588e-005 -6.10353e-005 -180 13.4558 -78.0188 70.4022 -0.00022325 0.000350745 51.2478 -5.79614e-005 7.53251e-005 49.3611 1.52588e-005 -1.52588e-005 -180 
0 0 0 -90 -7.01671e-015 -180 -31.2366 -8.56303 -95.7412 -176.077 -37.368 -35.4403 0.575472 0.880562 -33.7537 -14.9588 -15.456 10.8682 -0.581091 -0.01133 69.2388 1.5092e-005 1.16084e-005 -86.4974 172.397 -33.265 -55.117 0.928535 0.777552 -50.3156 0.217646 -1.07276 45.2959 0.590959 -0.0635158 62.554 3.94879e-006 -2.49028e-005 -86.4974 0.000234793 6.81988e-005 129.68 12.8466 -0.0102971 -16.0956 19.1162 0.305927 -14.7089 4.97644 -22.6824 -2.81231 -14.4733 49.4976 31.2563 6.25791 21.8464 56.2162 112.974 19.8026 -39.4473 44.7597 23.2759 54.3126 -5.47278 29.5557 65.0415 -26.4277 -15.0495 31.4824 -166.301 -41.4264 140.859 0.000353037 8.77382e-006 4.0579 0.000244293 3.46743e-005 5.37719 0.000257837 -0.00129204 -0.000136601 95.3332 82.8239 -83.5006 -0.000235779 -0.000857544 29.4088 0.00147977 -0.000392066 27.9844 0.00128339 -0.00204667 -0.0144063 12.1818 86.778 13.5 0.000256576 -0.000269631 45.1551 0.000942806 -0.000367076 14.7178 -0.000563509 -0.000296448 -0.166337 18.7452 85.5525 18.8102 0.000358925 -0.00104047 27.8854 0.00165958 0.000335338 26.1178 -0.000631104 -0.000697606 -0.165761 32.3122 81.8583 -5.70256 0.00140659 -0.00075593 35.4734 -0.00810128 -0.00392611 24.7755 -3.72396e-005 -7.26583e-005 -0.166861 -77.9341 -24.1163 -7.96203 -26.3695 -10.9959 85.08 -18.3856 19.588 110.503 1.30098 43.3207 32.0657 142.213 51.8017 169.894 -0.000139922 0.000112 16.9256 0.000101187 0.000120906 23.0214 -1.52588e-005 -7.62941e-005 180 -95.03 -68.1708 -102.331 -0.000244102 -1.81433e-005 49.7581 0.000137218 -6.22065e-005 49.2065 -9.15529e-005 -7.6294e-005 -180 -105.983 -79.9218 -76.0643 -7.46908e-005 -3.9101e-005 65.9844 -0.000201764 0.000268589 58.5702 -1.52588e-005 -0.000152588 180 -16.1789 -83.9647 34.4445 -3.87219e-006 9.99916e-005 55.5556 -0.000132676 -0.000134859 57.7158 1.52588e-005 -7.62941e-005 -180 13.4556 -78.0187 70.402 -0.000220731 0.000334312 51.2478 -4.82456e-005 8.40956e-005 49.3611 1.52588e-005 -1.52588e-005 -180 
0 0 0 -90 -7.01671e-015 -180 -31.5842 -8.44534 -96.3298 -176.982 -38.3456 -38.2892 0.546098 0.90175 -31.786 -15.3805 -14.7191 10.8857 -0.581037 -0.0136228 69.4721 1.48176e-005 -6.17072e-006 -86.4974 172.964 -33.5474 -57.4982 0.896841 0.830186 -47.4752 0.25149 -1.79023 44.6629 0.590749 -0.0653099 62.3775 3.96123e-006 -2.93183e-005 -86.4974 0.000231734 7.7388e-005 129.343 13.0137 0.352284 -16.1211 18.9962 0.503814 -14.7648 5.07514 -22.5105 -2.4854 -13.7154 49.9603 30.14 5.99037 21.7393 56.5092 113.068 19.7317 -39.7367 44.6667 23.4746 54.157 -5.53252 30.3679 65.3133 -25.5452 -15.6617 31.7393 -166.038 -41.0509 140.991 0.000355465 8.25653e-006 4.01569 0.000237642 2.55599e-005 5.71795 0.000257838 -0.00129622 -0.000136601 94.9542 82.9389 -82.8862 -0.000239398 -0.000845461 29.3984 0.00147888 -0.00039565 27.9838 0.00125387 -0.0020211 -0.0181462 11.987 86.8194 13.7744 0.000248854 -0.000272498 44.8958 0.000945202 -0.000375279 14.6751 -0.000562226 -0.000295594 -0.167616 18.8257 85.6178 18.6749 0.000356978 -0.00104399 27.8328 0.00166053 0.000312742 25.93 -0.000631538 -0.000696751 -0.167042 32.8373 81.8721 -6.21146 0.00140038 -0.000764831 35.0213 -0.00532374 -0.00260533 24.4136 -3.89636e-005 -7.35135e-005 -0.16814 -78.0652 -24.1686 -7.49338 -26.9831 -12.5622 83.5574 -17.5473 18.1139 110.271 0.528043 42.6553 33.0393 142.213 51.8015 169.894 -0.000138367 0.00010757 16.9256 9.75334e-005 0.000119768 22.9754 -1.52588e-005 -7.62941e-005 180 -95.0301 -68.1708 -102.331 -0.000243285 -3.98007e-005 49.7581 0.000136567 -6.10337e-005 49.1616 -9.15529e-005 -0.000137329 -180 -105.983 -79.9218 -76.0643 -7.20193e-005 -7.85525e-005 65.9844 -0.000202542 0.00025257 58.5702 -1.52588e-005 3.05176e-005 -180 -16.1789 -83.9647 34.4445 6.90951e-006 2.71874e-005 55.5556 -0.000132639 -0.000228535 57.7158 1.52588e-005 -7.62941e-005 -180 13.4556 -78.0187 70.4019 -0.000217273 0.00030148 51.2478 -4.33545e-005 8.43755e-005 49.3611 1.52588e-005 -1.52588e-005 -180 
